HIERARCHY
ROOT Hips
{
	OFFSET -0.001795 -0.223333 0.028219
	CHANNELS 6 Xposition Yposition Zposition Zrotation Yrotation Xrotation 
	JOINT LeftUpLeg
	{
		OFFSET 0.069520 -0.091406 -0.006815
		CHANNELS 3 Zrotation Yrotation Xrotation
		JOINT LeftLeg
		{
			OFFSET 0.034277 -0.375199 -0.004496
			CHANNELS 3 Zrotation Yrotation Xrotation
			JOINT LeftFoot
			{
				OFFSET -0.013596 -0.397961 -0.043693
				CHANNELS 3 Zrotation Yrotation Xrotation
				JOINT LeftToe
				{
					OFFSET 0.026358 -0.055791 0.119288
					CHANNELS 3 Zrotation Yrotation Xrotation
					End Site
					{
						OFFSET 0.000000 0.000000 0.000000
					}
				}
			}
		}
	}
	JOINT RightUpLeg
	{
		OFFSET -0.067670 -0.090522 -0.004320
		CHANNELS 3 Zrotation Yrotation Xrotation
		JOINT RightLeg
		{
			OFFSET -0.038290 -0.382569 -0.008850
			CHANNELS 3 Zrotation Yrotation Xrotation
			JOINT RightFoot
			{
				OFFSET 0.015774 -0.398415 -0.042312
				CHANNELS 3 Zrotation Yrotation Xrotation
				JOINT RightToe
				{
					OFFSET -0.025372 -0.048144 0.123348
					CHANNELS 3 Zrotation Yrotation Xrotation
					End Site
					{
						OFFSET 0.000000 0.000000 0.000000
					}
				}
			}
		}
	}
	JOINT Spine
	{
		OFFSET -0.002533 0.108963 -0.026696
		CHANNELS 3 Zrotation Yrotation Xrotation
		JOINT Spine1
		{
			OFFSET 0.005487 0.135180 0.001092
			CHANNELS 3 Zrotation Yrotation Xrotation
			JOINT Spine2
			{
				OFFSET 0.001457 0.052922 0.025425
				CHANNELS 3 Zrotation Yrotation Xrotation
				JOINT Neck
				{
					OFFSET -0.002778 0.213870 -0.042857
					CHANNELS 3 Zrotation Yrotation Xrotation
					JOINT Head
					{
						OFFSET 0.005152 0.064970 0.051349
						CHANNELS 3 Zrotation Yrotation Xrotation
						End Site
						{
							OFFSET 0.000000 0.000000 0.000000
						}
					}
				}
				JOINT LeftShoulder
				{
					OFFSET 0.078845 0.121749 -0.034090
					CHANNELS 3 Zrotation Yrotation Xrotation
					JOINT LeftArm
					{
						OFFSET 0.090977 0.030469 -0.008868
						CHANNELS 3 Zrotation Yrotation Xrotation
						JOINT LeftForeArm
						{
							OFFSET 0.259612 -0.012772 -0.027456
							CHANNELS 3 Zrotation Yrotation Xrotation
							JOINT LeftHand
							{
								OFFSET 0.249234 0.008986 -0.001171
								CHANNELS 3 Zrotation Yrotation Xrotation
								End Site
								{
									OFFSET 0.000000 0.000000 0.000000
								}
							}
						}
					}
				}
				JOINT RightShoulder
				{
					OFFSET -0.081759 0.118833 -0.038615
					CHANNELS 3 Zrotation Yrotation Xrotation
					JOINT RightArm
					{
						OFFSET -0.096012 0.032551 -0.009143
						CHANNELS 3 Zrotation Yrotation Xrotation
						JOINT RightForeArm
						{
							OFFSET -0.253742 -0.013329 -0.021401
							CHANNELS 3 Zrotation Yrotation Xrotation
							JOINT RightHand
							{
								OFFSET -0.255298 0.007772 -0.005559
								CHANNELS 3 Zrotation Yrotation Xrotation
								End Site
								{
									OFFSET 0.000000 0.000000 0.000000
								}
							}
						}
					}
				}
			}
		}
	}
}
MOTION
Frames: 6
Frame Time: 0.050000
-0.003199 0.969429 0.000972 -0.945723 7.084764 -1.409471 1.935552 -0.331854 -3.986668 -0.770780 -0.174798 6.953160 -9.674644 -7.930885 16.384750 0.000000 0.000000 0.000000 -1.239655 0.468997 -5.167282 -6.195950 1.429274 8.331937 0.302538 -4.923539 18.040780 0.000000 0.000000 0.000000 -3.470983 -0.368837 17.577768 4.076344 -0.415577 -20.315713 0.067394 4.649433 17.136212 -5.730570 6.033397 -24.175467 0.000000 0.000000 0.000000 -35.689147 -9.413681 -0.636686 -34.087625 -3.867800 -2.782062 -18.937974 -35.716939 7.101690 0.000000 0.000000 0.000000 28.492868 8.522679 6.906274 41.543692 14.646949 -1.587581 1.446278 20.122859 1.069306 0.000000 0.000000 0.000000 
-0.009691 0.971574 0.002736 -1.481383 7.827423 -0.672898 1.055756 -0.350457 -4.072567 0.983308 -0.372820 5.476068 -7.205522 -3.933491 16.178887 0.000000 0.000000 0.000000 -0.927517 0.577721 -6.262471 -5.062824 1.157089 7.538073 0.004196 -6.133568 21.921052 0.000000 0.000000 0.000000 -3.576125 -0.331464 16.542833 5.673015 -0.701058 -22.345903 -0.387250 5.258317 19.555620 -3.612727 5.154602 -25.782540 0.000000 0.000000 0.000000 -36.603486 -8.851046 -1.686745 -33.828959 -4.550881 -2.579020 -18.080909 -35.466561 6.742554 0.000000 0.000000 0.000000 28.113863 9.589366 8.199458 41.651601 15.273832 -1.770077 1.367653 22.334671 1.234226 0.000000 0.000000 0.000000 
-0.019275 0.973658 0.004957 -2.028316 9.946080 0.138355 0.715725 -0.382593 -4.406280 2.735554 -0.514134 3.874588 -6.359450 -2.021216 16.538883 0.000000 0.000000 0.000000 -0.531409 0.693080 -7.411318 -4.181954 0.991908 7.678148 -0.074664 -6.344853 24.644009 0.000000 0.000000 0.000000 -3.019036 -0.415727 15.643260 6.336329 -0.727059 -23.560945 -0.846074 5.719199 21.140165 -1.688093 4.436703 -26.114626 0.000000 0.000000 0.000000 -36.408500 -9.634234 -2.042050 -34.130449 -5.023433 -2.330352 -17.203242 -34.864111 6.245320 0.000000 0.000000 0.000000 27.795403 9.677830 9.068300 41.193975 15.398407 -2.115775 1.970969 24.268791 1.528151 0.000000 0.000000 0.000000 
-0.030619 0.974091 0.007398 -2.270534 12.972620 0.640954 0.862706 -0.424114 -4.901473 3.765090 -0.560688 2.901280 -6.790152 -2.021928 16.790713 0.000000 0.000000 0.000000 -0.343383 0.755850 -8.172211 -3.528995 0.888697 8.665433 -0.066179 -5.792523 25.255684 0.000000 0.000000 0.000000 -2.484093 -0.534674 15.419374 6.332572 -0.669724 -23.174510 -1.148271 5.621181 20.728812 -0.720749 4.086693 -24.765838 0.000000 0.000000 0.000000 -35.436957 -11.149943 -1.803514 -34.569190 -4.912268 -2.119147 -16.894104 -34.423479 5.927964 0.000000 0.000000 0.000000 26.934876 9.261688 9.317058 40.730325 14.222897 -2.594969 3.470658 25.746368 1.989310 0.000000 0.000000 0.000000 
-0.043037 0.972762 0.010445 -2.285290 15.532075 0.589891 1.365152 -0.419872 -4.859721 3.751122 -0.503511 2.353718 -6.743035 -1.824447 16.239295 0.000000 0.000000 0.000000 -0.209525 0.752838 -8.185520 -2.916062 0.763149 9.625130 -0.096005 -5.150798 24.411625 0.000000 0.000000 0.000000 -2.532230 -0.583632 15.521745 6.507167 -0.695745 -22.480712 -1.147974 5.533310 20.129825 -0.969733 4.329908 -23.233049 0.000000 0.000000 0.000000 -35.006696 -11.825846 -2.048995 -34.303466 -4.148514 -2.063617 -17.286057 -34.335762 5.929015 0.000000 0.000000 0.000000 25.832593 9.026067 9.395216 40.286736 12.584307 -3.083484 4.770905 26.406395 2.336150 0.000000 0.000000 0.000000 
-0.055918 0.970452 0.014183 -2.220664 17.522866 0.232218 2.093098 -0.392151 -4.429396 3.013393 -0.394759 2.102025 -5.934703 -1.013580 14.908264 0.000000 0.000000 0.000000 0.000705 0.700036 -7.452629 -2.441153 0.636112 9.848701 -0.007108 -4.344233 22.892859 0.000000 0.000000 0.000000 -2.924176 -0.563288 15.426091 6.853999 -0.753893 -22.221582 -0.937480 5.709308 20.339230 -2.025943 5.054530 -21.719044 0.000000 0.000000 0.000000 -35.391704 -11.620371 -2.968143 -33.416429 -2.609600 -2.210301 -17.728405 -34.173098 5.981729 0.000000 0.000000 0.000000 25.070321 8.720375 9.446302 39.874130 10.962645 -3.613079 5.248482 26.532167 2.442390 0.000000 0.000000 0.000000 
